# xmcd CD database file
# Copyright (C) 1996 Ti Kan
#
# Track frame offsets:
# 	150
# 	21247
# 	36980
# 	55555
# 	69805
# 	87802
# 	106527
# 	126777
# 	146700
# 	161940
# 	176845
# 	197870
# 	216055
# 	236842
# 	251837
# 	271380
# 	287672
# 	303142
#
# Disc length: 4343 seconds
#
# Revision: 1
# Processed by: cddbd v1.4b41PL1 Copyright (c) Steve Scherf et al.
# Submitted via: DiscPlay 3.4.1
#
DISCID=0310f512
DTITLE=John Hammond - John Hammond "Live"
DYEAR=1900
DGENRE=
TTITLE0=I Wish You Would
TTITLE1=Saddle My Pony
TTITLE2=Cat Man Blues
TTITLE3=Custard Pie
TTITLE4=One Kind Favor
TTITLE5=I Can't Be Satisfied
TTITLE6=Dust My Broom
TTITLE7=Low Down Dog
TTITLE8=Little School Girl
TTITLE9=Shake For Me
TTITLE10=Drop Down Mama
TTITLE11=Texas Tornado
TTITLE12=Steady Rollin' Man
TTITLE13=Ain't That Lovin' You Baby
TTITLE14=Sail On
TTITLE15=Wang Dang Doodle
TTITLE16=Honeymoon Blues
TTITLE17=I'm Movin' On
EXTD=
EXTT0=
EXTT1=
EXTT2=
EXTT3=
EXTT4=
EXTT5=
EXTT6=
EXTT7=
EXTT8=
EXTT9=
EXTT10=
EXTT11=
EXTT12=
EXTT13=
EXTT14=
EXTT15=
EXTT16=
EXTT17=
PLAYORDER=
